# xmcd
#
# Track frame offsets: 
#        150
#        12651
#        24805
#        37692
#        47381
#        59055
#        71535
#        83098
#        91251
#        101144
#        110402
#        118010
#        130210
#        137217
#
# Disc length: 1934 seconds
#
# Revision: 0
# Processed by: cddbd v1.5.2PL0 Copyright (c) Steve Scherf et al.
# Submitted via: ExactAudioCopy v0.95b3
#
DISCID=b5078c0e
DTITLE=Judy Canova - Ozark Nightengale
DYEAR=1900
DGENRE=Country
TTITLE0=I Can't Give You Anything But Love
TTITLE1=Lonley World
TTITLE2=Too Late To Worry
TTITLE3=Along The Navajo Trail
TTITLE4=No Letter Today
TTITLE5=Walking The Floor Over You
TTITLE6=Stuff Like That There
TTITLE7=You Are My Sunshine
TTITLE8=Some Of These Days
TTITLE9=Wabash Blues
TTITLE10=Just Because
TTITLE11=You'll Never Know
TTITLE12=After Youve Gone
TTITLE13=Put Your Arms Around Me, Honey
EXTD=
EXTT0=
EXTT1=
EXTT2=
EXTT3=
EXTT4=
EXTT5=
EXTT6=
EXTT7=
EXTT8=
EXTT9=
EXTT10=
EXTT11=
EXTT12=
EXTT13=
PLAYORDER=
